<?xml version="1.0" standalone="no"?><svg xmlns="http://www.w3.org/2000/svg" viewBox="0 0 1440 320"><path fill="#fff" fill-opacity="1" d="M0,64L34.3,69.3C68.6,75,137,85,206,90.7C274.3,96,343,96,411,80C480,64,549,32,617,37.3C685.7,43,754,85,823,112C891.4,139,960,149,1029,149.3C1097.1,149,1166,139,1234,117.3C1302.9,96,1371,64,1406,48L1440,32L1440,320L1405.7,320C1371.4,320,1303,320,1234,320C1165.7,320,1097,320,1029,320C960,320,891,320,823,320C754.3,320,686,320,617,320C548.6,320,480,320,411,320C342.9,320,274,320,206,320C137.1,320,69,320,34,320L0,320Z"></path></svg>